<svg xmlns="http://www.w3.org/2000/svg" width="20" height="20" fill="none" viewBox="0 0 24 24"><path fill="url(#on-premises_svg__a)" fill-rule="evenodd" d="M2.515 4.39C2.1 4.983 2.1 6.742 2.1 10.259v1.733c0 6.201 4.662 9.211 7.588 10.489.794.347 1.19.52 2.312.52V1c-.893 0-1.755.295-3.479.885l-.63.216c-3.307 1.132-4.96 1.698-5.376 2.29" clip-rule="evenodd"></path><path fill="url(#on-premises_svg__b)" d="M21.9 11.99v-1.732c0-3.517 0-5.276-.415-5.867s-2.07-1.158-5.376-2.29l-.63-.216C13.755 1.295 12.893 1 12 1v22c1.121 0 1.518-.173 2.312-.52 2.925-1.278 7.588-4.288 7.588-10.49" opacity="0.5"></path><defs><linearGradient id="on-premises_svg__a" x1="7.05" x2="7.05" y1="1" y2="23" gradientUnits="userSpaceOnUse"><stop stop-color="#B394F4" style="stop-color: color(display-p3 0.702 0.5804 0.9569); stop-opacity: 1;"></stop><stop offset="1" stop-color="#C4AEF7" style="stop-color: color(display-p3 0.7686 0.6824 0.9686); stop-opacity: 1;"></stop></linearGradient><linearGradient id="on-premises_svg__b" x1="16.95" x2="16.95" y1="1" y2="23" gradientUnits="userSpaceOnUse"><stop stop-color="#B394F4" style="stop-color: color(display-p3 0.702 0.5804 0.9569); stop-opacity: 1;"></stop><stop offset="1" stop-color="#C4AEF7" stop-opacity="0" style="stop-opacity: 0;"></stop></linearGradient></defs></svg>